<?xml version="1.0" encoding="iso-8859-1"?>
<!-- Generator: Adobe Illustrator 19.0.0, SVG Export Plug-In . SVG Version: 6.00 Build 0)  -->
<svg version="1.1" id="Capa_1" xmlns="http://www.w3.org/2000/svg" xmlns:xlink="http://www.w3.org/1999/xlink" x="0px" y="0px"
	 viewBox="0 0 58 58" style="enable-background:new 0 0 58 58;" xml:space="preserve">
<g>
	<path d="M43.975,53.825c0.277-0.168,0.548-0.345,0.819-0.522c0.504-0.326,0.995-0.666,1.474-1.02
		c0.039-0.029,0.078-0.057,0.116-0.086c4.916-3.667,8.492-8.742,10.291-14.525c0.009-0.027,0.018-0.054,0.026-0.082
		c0.118-0.385,0.228-0.772,0.331-1.163c0.053-0.199,0.1-0.4,0.149-0.601c0.078-0.324,0.159-0.647,0.226-0.975
		c0.106-0.515,0.196-1.036,0.274-1.561c0.031-0.211,0.054-0.423,0.081-0.635c0.052-0.415,0.096-0.833,0.131-1.253
		c0.016-0.192,0.032-0.384,0.044-0.577C57.974,30.221,58,29.614,58,29s-0.026-1.221-0.063-1.825
		c-0.012-0.193-0.028-0.385-0.044-0.577c-0.035-0.42-0.079-0.838-0.131-1.253c-0.026-0.212-0.05-0.424-0.081-0.635
		c-0.078-0.525-0.168-1.046-0.274-1.561c-0.067-0.328-0.148-0.65-0.226-0.975c-0.049-0.201-0.096-0.402-0.149-0.601
		c-0.103-0.391-0.213-0.778-0.331-1.163c-0.008-0.027-0.018-0.054-0.026-0.082C54.876,14.545,51.3,9.47,46.384,5.803
		c-0.038-0.029-0.077-0.057-0.116-0.086c-0.479-0.354-0.97-0.694-1.474-1.02c-0.271-0.177-0.542-0.354-0.819-0.522
		c-0.21-0.126-0.424-0.246-0.638-0.367c-0.35-0.2-0.704-0.393-1.063-0.578c-0.111-0.057-0.216-0.122-0.328-0.178L41.5,2.828
		l-0.009,0.004C37.706,1.018,33.47,0,29,0C13.009,0,0,13.01,0,29s13.009,29,29,29c4.47,0,8.706-1.018,12.491-2.832l0.009,0.004
		l0.447-0.224c0.112-0.056,0.217-0.121,0.328-0.178c0.359-0.186,0.713-0.378,1.063-0.578C43.551,54.071,43.766,53.951,43.975,53.825
		z M43.755,51.594c-0.277,0.182-0.556,0.362-0.84,0.534c-0.402,0.241-0.811,0.474-1.229,0.697c-0.065,0.034-0.131,0.066-0.195,0.1
		C32.539,48.242,27,39.121,27,29S32.539,9.758,41.491,5.075c0.065,0.034,0.131,0.066,0.195,0.1c0.418,0.222,0.827,0.455,1.229,0.697
		c0.284,0.172,0.563,0.352,0.84,0.534c0.153,0.099,0.305,0.199,0.455,0.301c4.938,3.38,8.701,8.354,10.541,14.176
		c0.017,0.054,0.035,0.107,0.051,0.161c0.111,0.36,0.214,0.724,0.311,1.091c0.046,0.176,0.087,0.354,0.13,0.532
		c0.094,0.391,0.182,0.785,0.259,1.182c0.076,0.396,0.148,0.792,0.206,1.193c0.03,0.202,0.052,0.407,0.078,0.611
		c0.046,0.375,0.086,0.752,0.117,1.132c0.015,0.179,0.03,0.358,0.041,0.538C55.977,27.879,56,28.437,56,29s-0.023,1.121-0.057,1.677
		c-0.011,0.18-0.026,0.359-0.041,0.538c-0.031,0.379-0.07,0.756-0.117,1.132c-0.025,0.204-0.048,0.409-0.078,0.611
		c-0.058,0.401-0.13,0.798-0.206,1.193c-0.077,0.397-0.164,0.791-0.259,1.182c-0.042,0.178-0.084,0.356-0.13,0.532
		c-0.096,0.367-0.199,0.731-0.311,1.091c-0.017,0.054-0.034,0.108-0.051,0.161c-1.839,5.822-5.603,10.797-10.541,14.176
		C44.06,51.396,43.908,51.495,43.755,51.594z M12.793,50.58C12.914,50.414,13,50.221,13,50c0-0.552-0.448-1-1-1
		c-0.294,0-0.551,0.132-0.734,0.333c-0.924-0.807-1.792-1.675-2.599-2.599C8.868,46.551,9,46.294,9,46c0-0.552-0.448-1-1-1
		c-0.221,0-0.414,0.086-0.58,0.207C4.019,40.69,2,35.077,2,29c0-3.537,0.691-6.915,1.933-10.013C3.956,18.988,3.976,19,4,19
		c0.552,0,1-0.448,1-1c0-0.287-0.125-0.542-0.318-0.724c2.28-4.71,5.889-8.662,10.337-11.366C15.015,5.941,15,5.968,15,6
		c0,0.552,0.448,1,1,1s1-0.448,1-1c0-0.393-0.232-0.725-0.562-0.889c3.202-1.691,6.782-2.753,10.578-3.031
		C27.059,2.593,27.476,3,28,3c0.552,0,1-0.448,1-1c2.2,0,4.337,0.271,6.386,0.77C35.557,2.906,35.764,3,36,3
		c0.054,0,0.101-0.023,0.153-0.031c1.062,0.292,2.098,0.645,3.103,1.06c-5.278,3.109-9.331,7.708-11.743,13.115
		C27.212,17.317,27,17.628,27,18c0,0.095,0.029,0.181,0.054,0.269C25.726,21.618,25,25.241,25,29c0,4.267,0.925,8.364,2.62,12.077
		C27.256,41.227,27,41.583,27,42c0,0.552,0.448,1,1,1c0.187,0,0.352-0.065,0.502-0.155c2.424,4.468,6.022,8.274,10.532,10.985
		C39.024,53.888,39,53.94,39,54c0,0.024,0.012,0.043,0.013,0.067C35.915,55.309,32.537,56,29,56
		C22.923,56,17.31,53.981,12.793,50.58z"/>
	<circle cx="28" cy="10" r="1"/>
	<circle cx="32" cy="6" r="1"/>
	<circle cx="28" cy="50" r="1"/>
	<circle cx="32" cy="54" r="1"/>
	<circle cx="20" cy="10" r="1"/>
	<circle cx="12" cy="10" r="1"/>
	<circle cx="24" cy="14" r="1"/>
	<circle cx="16" cy="14" r="1"/>
	<circle cx="24" cy="6" r="1"/>
	<circle cx="20" cy="18" r="1"/>
	<circle cx="12" cy="18" r="1"/>
	<circle cx="24" cy="22" r="1"/>
	<circle cx="16" cy="22" r="1"/>
	<circle cx="20" cy="26" r="1"/>
	<circle cx="12" cy="26" r="1"/>
	<circle cx="24" cy="30" r="1"/>
	<circle cx="16" cy="30" r="1"/>
	<circle cx="20" cy="34" r="1"/>
	<circle cx="12" cy="34" r="1"/>
	<circle cx="24" cy="38" r="1"/>
	<circle cx="16" cy="38" r="1"/>
	<circle cx="20" cy="42" r="1"/>
	<circle cx="12" cy="42" r="1"/>
	<circle cx="24" cy="46" r="1"/>
	<circle cx="16" cy="46" r="1"/>
	<circle cx="20" cy="50" r="1"/>
	<circle cx="24" cy="54" r="1"/>
	<circle cx="8" cy="14" r="1"/>
	<circle cx="8" cy="22" r="1"/>
	<circle cx="4" cy="26" r="1"/>
	<circle cx="8" cy="30" r="1"/>
	<circle cx="4" cy="34" r="1"/>
	<circle cx="8" cy="38" r="1"/>
</g>
<g>
</g>
<g>
</g>
<g>
</g>
<g>
</g>
<g>
</g>
<g>
</g>
<g>
</g>
<g>
</g>
<g>
</g>
<g>
</g>
<g>
</g>
<g>
</g>
<g>
</g>
<g>
</g>
<g>
</g>
</svg>
