<svg xmlns="http://www.w3.org/2000/svg" version="1.1" xmlns:xlink="http://www.w3.org/1999/xlink" xmlns:svgjs="http://svgjs.com/svgjs" width="4000" height="2000" preserveAspectRatio="none" viewBox="0 0 4000 2000">
    <g mask="url(&quot;#SvgjsMask1052&quot;)" fill="none">
        <path d="M230.478,2482.345C359.7,2479.164,472.8,2403.297,537.955,2291.658C603.689,2179.027,616.416,2041.833,554.584,1927.013C489.502,1806.158,367.687,1724.599,230.478,1720.682C86.317,1716.567,-55.862,1782.288,-127.344,1907.547C-198.278,2031.845,-180.022,2185.975,-104.389,2307.471C-33.061,2422.05,95.552,2485.667,230.478,2482.345" fill="rgba(127, 127, 127, 0.1)" class="triangle-float2"></path>
        <path d="M1231.244,1667.274C1400.46,1669.154,1516.916,1511.596,1591.436,1359.661C1656.206,1227.605,1651.548,1078.696,1584.016,948.031C1509.595,804.035,1393.307,665.768,1231.244,662.735C1065.431,659.631,929.352,786.225,854.832,934.382C787.65,1067.95,816.349,1218.811,884.656,1351.807C961.152,1500.747,1063.818,1665.413,1231.244,1667.274" fill="rgba(127, 127, 127, 0.1)" class="triangle-float2"></path>
        <path d="M4135.243,1045.203C4312.431,1050.15,4506.454,1019.581,4598.767,868.259C4693.899,712.316,4647.687,515.687,4553.898,358.932C4462.974,206.965,4312.331,92.471,4135.243,93.542C3959.786,94.603,3811.112,210.917,3725.266,363.942C3641.408,513.424,3626.109,696.712,3714.485,843.568C3800.435,986.392,3968.616,1040.55,4135.243,1045.203" fill="rgba(127, 127, 127, 0.1)" class="triangle-float1"></path>
        <path d="M1998.72 79.57 a408.95 408.95 0 1 0 817.9 0 a408.95 408.95 0 1 0 -817.9 0z" fill="rgba(127, 127, 127, 0.1)" class="triangle-float1"></path>
        <path d="M-219.58 83.53 a579.51 579.51 0 1 0 1159.02 0 a579.51 579.51 0 1 0 -1159.02 0z" fill="rgba(127, 127, 127, 0.1)" class="triangle-float1"></path>
        <path d="M3732.936,1907.259C3872.178,1915.686,4022.428,1882.405,4096.156,1763.984C4173.25,1640.157,4148.787,1482.618,4076.02,1356.2C4003.068,1229.461,3879.119,1136.86,3732.936,1132.961C3580.052,1128.883,3424.769,1200.097,3356.617,1337.011C3293.608,1463.592,3360.758,1606.178,3438.638,1724.193C3506.84,1827.542,3609.337,1899.779,3732.936,1907.259" fill="rgba(127, 127, 127, 0.1)" class="triangle-float1"></path>
        <path d="M1757.974,497.144C1804.494,493.897,1851.322,479.367,1874.902,439.135C1898.718,398.501,1890.084,349.628,1869.168,307.428C1844.99,258.648,1812.404,204.405,1757.974,203.228C1702.403,202.026,1666.22,254.471,1638.123,302.431C1609.589,351.135,1579.3,409.63,1608.889,457.701C1637.769,504.62,1703.013,500.98,1757.974,497.144" fill="rgba(127, 127, 127, 0.1)" class="triangle-float2"></path>
        <path d="M537.75 1954.98 a656.56 656.56 0 1 0 1313.12 0 a656.56 656.56 0 1 0 -1313.12 0z" fill="rgba(127, 127, 127, 0.1)" class="triangle-float2"></path>
        <path d="M1735.54 442.32 a553.62 553.62 0 1 0 1107.24 0 a553.62 553.62 0 1 0 -1107.24 0z" fill="rgba(127, 127, 127, 0.1)" class="triangle-float3"></path>
        <path d="M2798.34 1808.46 a493.61 493.61 0 1 0 987.22 0 a493.61 493.61 0 1 0 -987.22 0z" fill="rgba(127, 127, 127, 0.1)" class="triangle-float3"></path>
    </g>
    <defs>
        <mask id="SvgjsMask1052">
            <rect width="4000" height="2000" fill="#ffffff"></rect>
        </mask>
        <style>
            @keyframes float1 {
                0%{transform: translate(0, 0)}
                50%{transform: translate(-40px, 0)}
                100%{transform: translate(0, 0)}
            }

            .triangle-float1 {
                animation: float1 5s infinite;
            }

            @keyframes float2 {
                0%{transform: translate(0, 0)}
                50%{transform: translate(-20px, -20px)}
                100%{transform: translate(0, 0)}
            }

            .triangle-float2 {
                animation: float2 4s infinite;
            }

            @keyframes float3 {
                0%{transform: translate(0, 0)}
                50%{transform: translate(0, -40px)}
                100%{transform: translate(0, 0)}
            }

            .triangle-float3 {
                animation: float3 6s infinite;
            }
        </style>
    </defs>
</svg>